<mxfile host="app.diagrams.net" modified="2023-11-22T05:26:16.406Z" agent="Mozilla/5.0 (Windows NT 10.0; Win64; x64) AppleWebKit/537.36 (KHTML, like Gecko) Chrome/119.0.0.0 Safari/537.36" version="22.1.3" etag="Kpfbs9IK2ZUonV8kLf9i" type="github">
  <diagram name="페이지-1" id="UaZniNHsIttSwsKOZA-m">
    <mxGraphModel>
      <root>
        <mxCell id="0" />
        <mxCell id="1" parent="0" />
      </root>
    </mxGraphModel>
  </diagram>
</mxfile>
